STARTFONT 2.1
COMMENT Recovered from germ35.qfasl (MIT CADR System 46 serialized QFASL FONT object)
FONT MIT-CADR-QFASL-GERM35
SIZE 40 72 72
FONTBOUNDINGBOX 32 40 0 -9
STARTPROPERTIES 2
FONT_ASCENT 31
FONT_DESCENT 9
ENDPROPERTIES
CHARS 128
STARTCHAR C0000
ENCODING -1 0
SWIDTH 0 0
DWIDTH 0 0
BBX 0 40 0 -9
BITMAP
00
00
00
00
00
00
00
00
00
00
00
00
00
00
00
00
00
00
00
00
00
00
00
00
00
00
00
00
00
00
00
00
00
00
00
00
00
00
00
00
ENDCHAR
STARTCHAR C0001
ENCODING -1 1
SWIDTH 0 0
DWIDTH 0 0
BBX 0 40 0 -9
BITMAP
00
00
00
00
00
00
00
00
00
00
00
00
00
00
00
00
00
00
00
00
00
00
00
00
00
00
00
00
00
00
00
00
00
00
00
00
00
00
00
00
ENDCHAR
STARTCHAR C0002
ENCODING -1 2
SWIDTH 350 0
DWIDTH 14 0
BBX 16 40 0 -9
BITMAP
0000
0000
0000
0000
0000
0000
0000
0000
0000
0000
039C
039C
0108
039C
0060
0000
0FF8
03F0
078E
0FFC
078F
078F
078F
078F
078F
078F
078E
078F
0F7E
1FFE
0000
061C
0000
0000
0000
0000
0000
0000
0000
0000
ENDCHAR
STARTCHAR C0003
ENCODING -1 3
SWIDTH 400 0
DWIDTH 16 0
BBX 16 40 0 -9
BITMAP
0000
0000
0000
0000
0000
0000
0C70
0000
07FC
0FFC
0006
03CE
001C
000C
073E
001C
1EF8
0FBF
3878
3C78
0C38
1878
07F8
0638
1E38
0FB8
3838
3C38
1838
3838
0FD8
1CF8
0010
0318
0010
0010
0000
0000
0000
0000
ENDCHAR
STARTCHAR C0004
ENCODING -1 4
SWIDTH 0 0
DWIDTH 0 0
BBX 0 40 0 -9
BITMAP
00
00
00
00
00
00
00
00
00
00
00
00
00
00
00
00
00
00
00
00
00
00
00
00
00
00
00
00
00
00
00
00
00
00
00
00
00
00
00
00
ENDCHAR
STARTCHAR C0005
ENCODING -1 5
SWIDTH 675 0
DWIDTH 27 0
BBX 32 40 0 -9
BITMAP
00000000
00000000
00000000
00000000
00000000
00000000
00000000
00000000
00000000
00000000
00000000
00000000
00000000
00000000
00000000
00000000
00000000
00000000
00000000
00000000
FFFE00FF
00000000
00000000
FFFE00FF
00000000
00000000
00000000
00000000
00000000
00000000
00000000
00000000
00000000
00000000
00000000
00000000
00000000
00000000
00000000
00000000
ENDCHAR
STARTCHAR C0006
ENCODING -1 6
SWIDTH 0 0
DWIDTH 0 0
BBX 0 40 0 -9
BITMAP
00
00
00
00
00
00
00
00
00
00
00
00
00
00
00
00
00
00
00
00
00
00
00
00
00
00
00
00
00
00
00
00
00
00
00
00
00
00
00
00
ENDCHAR
STARTCHAR C0007
ENCODING -1 7
SWIDTH 0 0
DWIDTH 0 0
BBX 0 40 0 -9
BITMAP
00
00
00
00
00
00
00
00
00
00
00
00
00
00
00
00
00
00
00
00
00
00
00
00
00
00
00
00
00
00
00
00
00
00
00
00
00
00
00
00
ENDCHAR
STARTCHAR C0008
ENCODING -1 8
SWIDTH 0 0
DWIDTH 0 0
BBX 0 40 0 -9
BITMAP
00
00
00
00
00
00
00
00
00
00
00
00
00
00
00
00
00
00
00
00
00
00
00
00
00
00
00
00
00
00
00
00
00
00
00
00
00
00
00
00
ENDCHAR
STARTCHAR C0009
ENCODING -1 9
SWIDTH 0 0
DWIDTH 0 0
BBX 0 40 0 -9
BITMAP
00
00
00
00
00
00
00
00
00
00
00
00
00
00
00
00
00
00
00
00
00
00
00
00
00
00
00
00
00
00
00
00
00
00
00
00
00
00
00
00
ENDCHAR
STARTCHAR C000A
ENCODING -1 10
SWIDTH 0 0
DWIDTH 0 0
BBX 0 40 0 -9
BITMAP
00
00
00
00
00
00
00
00
00
00
00
00
00
00
00
00
00
00
00
00
00
00
00
00
00
00
00
00
00
00
00
00
00
00
00
00
00
00
00
00
ENDCHAR
STARTCHAR C000B
ENCODING -1 11
SWIDTH 0 0
DWIDTH 0 0
BBX 0 40 0 -9
BITMAP
00
00
00
00
00
00
00
00
00
00
00
00
00
00
00
00
00
00
00
00
00
00
00
00
00
00
00
00
00
00
00
00
00
00
00
00
00
00
00
00
ENDCHAR
STARTCHAR C000C
ENCODING -1 12
SWIDTH 0 0
DWIDTH 0 0
BBX 0 40 0 -9
BITMAP
00
00
00
00
00
00
00
00
00
00
00
00
00
00
00
00
00
00
00
00
00
00
00
00
00
00
00
00
00
00
00
00
00
00
00
00
00
00
00
00
ENDCHAR
STARTCHAR C000D
ENCODING -1 13
SWIDTH 0 0
DWIDTH 0 0
BBX 0 40 0 -9
BITMAP
00
00
00
00
00
00
00
00
00
00
00
00
00
00
00
00
00
00
00
00
00
00
00
00
00
00
00
00
00
00
00
00
00
00
00
00
00
00
00
00
ENDCHAR
STARTCHAR C000E
ENCODING -1 14
SWIDTH 0 0
DWIDTH 0 0
BBX 16 40 0 -9
BITMAP
0000
0000
0000
0000
0000
0000
0000
0000
0000
0000
0738
0738
0210
0738
0000
0000
0000
0000
0000
0000
0000
0000
0000
0000
0000
0000
0000
0000
0000
0000
0000
0000
0000
0000
0000
0000
0000
0000
0000
0000
ENDCHAR
STARTCHAR C000F
ENCODING -1 15
SWIDTH 0 0
DWIDTH 0 0
BBX 0 40 0 -9
BITMAP
00
00
00
00
00
00
00
00
00
00
00
00
00
00
00
00
00
00
00
00
00
00
00
00
00
00
00
00
00
00
00
00
00
00
00
00
00
00
00
00
ENDCHAR
STARTCHAR C0010
ENCODING -1 16
SWIDTH 0 0
DWIDTH 0 0
BBX 0 40 0 -9
BITMAP
00
00
00
00
00
00
00
00
00
00
00
00
00
00
00
00
00
00
00
00
00
00
00
00
00
00
00
00
00
00
00
00
00
00
00
00
00
00
00
00
ENDCHAR
STARTCHAR C0011
ENCODING -1 17
SWIDTH 0 0
DWIDTH 0 0
BBX 0 40 0 -9
BITMAP
00
00
00
00
00
00
00
00
00
00
00
00
00
00
00
00
00
00
00
00
00
00
00
00
00
00
00
00
00
00
00
00
00
00
00
00
00
00
00
00
ENDCHAR
STARTCHAR C0012
ENCODING -1 18
SWIDTH 0 0
DWIDTH 0 0
BBX 0 40 0 -9
BITMAP
00
00
00
00
00
00
00
00
00
00
00
00
00
00
00
00
00
00
00
00
00
00
00
00
00
00
00
00
00
00
00
00
00
00
00
00
00
00
00
00
ENDCHAR
STARTCHAR C0013
ENCODING -1 19
SWIDTH 550 0
DWIDTH 22 0
BBX 32 40 0 -9
BITMAP
1CE00000
1CE00000
08400000
1CE00000
20180000
00000000
F83E0000
703C0000
FC7F0001
FC7F0003
F0780000
F87C0000
F0780000
F0780000
F0780000
F0780000
F0780000
F0780000
F0780000
F0780000
F0780000
F0780000
F0780000
F0780000
FC7C0004
F8780000
E1FC0003
F3FE0007
40600000
E0F00000
00000000
00000000
00000000
00000000
00000000
00000000
00000000
00000000
00000000
00000000
ENDCHAR
STARTCHAR C0014
ENCODING -1 20
SWIDTH 575 0
DWIDTH 23 0
BBX 32 40 0 -9
BITMAP
70E00000
00000000
70E00000
70E00000
00000000
20400000
00F8000E
00000000
B3C60007
99FC000F
E7870001
E7C70003
E78F0001
E7870001
E78F0001
E78F0001
E79C0001
E79E0001
E7980001
E79C0001
E38E0001
E39C0001
E0C00001
E1C00001
F07C0001
F0700001
EFFC0007
F8FE0001
C1C00001
E3F00003
00000000
80000000
00000000
00000000
00000000
00000000
00000000
00000000
00000000
00000000
ENDCHAR
STARTCHAR C0015
ENCODING -1 21
SWIDTH 0 0
DWIDTH 0 0
BBX 0 40 0 -9
BITMAP
00
00
00
00
00
00
00
00
00
00
00
00
00
00
00
00
00
00
00
00
00
00
00
00
00
00
00
00
00
00
00
00
00
00
00
00
00
00
00
00
ENDCHAR
STARTCHAR C0016
ENCODING -1 22
SWIDTH 350 0
DWIDTH 14 0
BBX 16 40 0 -9
BITMAP
0000
0000
0000
0000
0000
0000
0000
0000
0738
0000
0738
0738
0000
0210
07E0
0700
0FBE
07FE
1F1E
0F1E
1F1E
1F1E
1E1E
1E1E
0E1E
1E1E
07FE
0E3E
00F8
01FF
0000
0040
0000
0000
0000
0000
0000
0000
0000
0000
ENDCHAR
STARTCHAR C0017
ENCODING -1 23
SWIDTH 0 0
DWIDTH 0 0
BBX 0 40 0 -9
BITMAP
00
00
00
00
00
00
00
00
00
00
00
00
00
00
00
00
00
00
00
00
00
00
00
00
00
00
00
00
00
00
00
00
00
00
00
00
00
00
00
00
ENDCHAR
STARTCHAR C0018
ENCODING -1 24
SWIDTH 0 0
DWIDTH 0 0
BBX 0 40 0 -9
BITMAP
00
00
00
00
00
00
00
00
00
00
00
00
00
00
00
00
00
00
00
00
00
00
00
00
00
00
00
00
00
00
00
00
00
00
00
00
00
00
00
00
ENDCHAR
STARTCHAR C0019
ENCODING -1 25
SWIDTH 0 0
DWIDTH 0 0
BBX 0 40 0 -9
BITMAP
00
00
00
00
00
00
00
00
00
00
00
00
00
00
00
00
00
00
00
00
00
00
00
00
00
00
00
00
00
00
00
00
00
00
00
00
00
00
00
00
ENDCHAR
STARTCHAR C001A
ENCODING -1 26
SWIDTH 0 0
DWIDTH 0 0
BBX 0 40 0 -9
BITMAP
00
00
00
00
00
00
00
00
00
00
00
00
00
00
00
00
00
00
00
00
00
00
00
00
00
00
00
00
00
00
00
00
00
00
00
00
00
00
00
00
ENDCHAR
STARTCHAR C001B
ENCODING -1 27
SWIDTH 0 0
DWIDTH 0 0
BBX 0 40 0 -9
BITMAP
00
00
00
00
00
00
00
00
00
00
00
00
00
00
00
00
00
00
00
00
00
00
00
00
00
00
00
00
00
00
00
00
00
00
00
00
00
00
00
00
ENDCHAR
STARTCHAR C001C
ENCODING -1 28
SWIDTH 0 0
DWIDTH 0 0
BBX 0 40 0 -9
BITMAP
00
00
00
00
00
00
00
00
00
00
00
00
00
00
00
00
00
00
00
00
00
00
00
00
00
00
00
00
00
00
00
00
00
00
00
00
00
00
00
00
ENDCHAR
STARTCHAR C001D
ENCODING -1 29
SWIDTH 0 0
DWIDTH 0 0
BBX 0 40 0 -9
BITMAP
00
00
00
00
00
00
00
00
00
00
00
00
00
00
00
00
00
00
00
00
00
00
00
00
00
00
00
00
00
00
00
00
00
00
00
00
00
00
00
00
ENDCHAR
STARTCHAR C001E
ENCODING -1 30
SWIDTH 0 0
DWIDTH 0 0
BBX 0 40 0 -9
BITMAP
00
00
00
00
00
00
00
00
00
00
00
00
00
00
00
00
00
00
00
00
00
00
00
00
00
00
00
00
00
00
00
00
00
00
00
00
00
00
00
00
ENDCHAR
STARTCHAR C001F
ENCODING -1 31
SWIDTH 375 0
DWIDTH 15 0
BBX 16 40 0 -9
BITMAP
0000
0000
0000
0000
0000
0000
0000
0000
0738
0738
0210
0738
0000
0000
0E0E
0404
1F9F
1F1F
071C
0F1F
071C
071C
071C
071C
071C
071C
1FFF
071C
0E1C
1E7E
0000
0408
0000
0000
0000
0000
0000
0000
0000
0000
ENDCHAR
STARTCHAR C0020
ENCODING -1 32
SWIDTH 300 0
DWIDTH 12 0
BBX 16 40 0 -9
BITMAP
0000
0000
0000
0000
0000
0000
0000
0000
0000
0000
0000
0000
0000
0000
0000
0000
0000
0000
0000
0000
0000
0000
0000
0000
0000
0000
0000
0000
0000
0000
0000
0000
0000
0000
0000
0000
0000
0000
0000
0000
ENDCHAR
STARTCHAR C0021
ENCODING -1 33
SWIDTH 250 0
DWIDTH 10 0
BBX 16 40 0 -9
BITMAP
0000
0000
0000
0000
0000
0000
0000
0000
0038
0000
007C
007C
007C
007C
0038
007C
0038
0038
0010
0038
0010
0010
0000
0010
0010
0000
007C
0038
007C
00FE
0010
0038
0000
0000
0000
0000
0000
0000
0000
0000
ENDCHAR
STARTCHAR C0022
ENCODING -1 34
SWIDTH 375 0
DWIDTH 15 0
BBX 16 40 0 -9
BITMAP
0000
0000
0000
0000
0000
0000
0000
0000
2040
0000
3870
3060
1E3C
1C38
0F1E
0F1E
0000
060C
0000
0000
0000
0000
0000
0000
0000
0000
0000
0000
0000
0000
0000
0000
0000
0000
0000
0000
0000
0000
0000
0000
ENDCHAR
STARTCHAR C0023
ENCODING -1 35
SWIDTH 0 0
DWIDTH 0 0
BBX 0 40 0 -9
BITMAP
00
00
00
00
00
00
00
00
00
00
00
00
00
00
00
00
00
00
00
00
00
00
00
00
00
00
00
00
00
00
00
00
00
00
00
00
00
00
00
00
ENDCHAR
STARTCHAR C0024
ENCODING -1 36
SWIDTH 350 0
DWIDTH 14 0
BBX 16 40 0 -9
BITMAP
0000
0000
0000
0000
0000
0000
0000
0000
0000
0000
0E0E
03F8
1800
0802
0C78
1830
03DC
0FFC
000F
001E
07DE
038E
0E38
0F7C
1E00
1E00
0778
0E00
03C7
07FE
0000
0180
0000
0000
0000
0000
0000
0000
0000
0000
ENDCHAR
STARTCHAR C0025
ENCODING -1 37
SWIDTH 0 0
DWIDTH 0 0
BBX 0 40 0 -9
BITMAP
00
00
00
00
00
00
00
00
00
00
00
00
00
00
00
00
00
00
00
00
00
00
00
00
00
00
00
00
00
00
00
00
00
00
00
00
00
00
00
00
ENDCHAR
STARTCHAR C0026
ENCODING -1 38
SWIDTH 0 0
DWIDTH 0 0
BBX 0 40 0 -9
BITMAP
00
00
00
00
00
00
00
00
00
00
00
00
00
00
00
00
00
00
00
00
00
00
00
00
00
00
00
00
00
00
00
00
00
00
00
00
00
00
00
00
ENDCHAR
STARTCHAR C0027
ENCODING -1 39
SWIDTH 200 0
DWIDTH 8 0
BBX 16 40 0 -9
BITMAP
0000
0000
0000
0000
0000
0000
0000
0000
003C
001C
001E
003E
0007
000E
0001
0003
0000
0000
0000
0000
0000
0000
0000
0000
0000
0000
0000
0000
0000
0000
0000
0000
0000
0000
0000
0000
0000
0000
0000
0000
ENDCHAR
STARTCHAR C0028
ENCODING -1 40
SWIDTH 250 0
DWIDTH 10 0
BBX 16 40 0 -9
BITMAP
0000
0000
0000
0000
0000
0000
0030
0060
0018
0030
000C
0018
000E
000C
0007
0006
0007
0007
0003
0003
0003
0003
0007
0003
0007
0007
0006
0006
000C
000C
0018
0018
0030
0030
0000
0060
0000
0000
0000
0000
ENDCHAR
STARTCHAR C0029
ENCODING -1 41
SWIDTH 250 0
DWIDTH 10 0
BBX 16 40 0 -9
BITMAP
0000
0000
0000
0000
0000
0000
0006
0003
000C
0006
0018
000C
0038
0018
0070
0030
0070
0070
0060
0060
0060
0060
0070
0060
0070
0070
0030
0030
0018
0018
000C
000C
0006
0006
0000
0003
0000
0000
0000
0000
ENDCHAR
STARTCHAR C002A
ENCODING -1 42
SWIDTH 0 0
DWIDTH 0 0
BBX 0 40 0 -9
BITMAP
00
00
00
00
00
00
00
00
00
00
00
00
00
00
00
00
00
00
00
00
00
00
00
00
00
00
00
00
00
00
00
00
00
00
00
00
00
00
00
00
ENDCHAR
STARTCHAR C002B
ENCODING -1 43
SWIDTH 0 0
DWIDTH 0 0
BBX 0 40 0 -9
BITMAP
00
00
00
00
00
00
00
00
00
00
00
00
00
00
00
00
00
00
00
00
00
00
00
00
00
00
00
00
00
00
00
00
00
00
00
00
00
00
00
00
ENDCHAR
STARTCHAR C002C
ENCODING -1 44
SWIDTH 200 0
DWIDTH 8 0
BBX 16 40 0 -9
BITMAP
0000
0000
0000
0000
0000
0000
0000
0000
0000
0000
0000
0000
0000
0000
0000
0000
0000
0000
0000
0000
0000
0000
0000
0000
0000
0000
001C
0000
003E
003C
000E
001E
0003
0007
0000
0001
0000
0000
0000
0000
ENDCHAR
STARTCHAR C002D
ENCODING -1 45
SWIDTH 300 0
DWIDTH 12 0
BBX 16 40 0 -9
BITMAP
0000
0000
0000
0000
0000
0000
0000
0000
0000
0000
0000
0000
0000
0000
0780
0600
01F8
07E0
001E
007E
0780
0606
01F8
07E0
001E
007E
0000
0006
0000
0000
0000
0000
0000
0000
0000
0000
0000
0000
0000
0000
ENDCHAR
STARTCHAR C002E
ENCODING -1 46
SWIDTH 250 0
DWIDTH 10 0
BBX 16 40 0 -9
BITMAP
0000
0000
0000
0000
0000
0000
0000
0000
0000
0000
0000
0000
0000
0000
0000
0000
0000
0000
0000
0000
0000
0000
0000
0000
0010
0000
007C
0038
007C
00FE
0010
0038
0000
0000
0000
0000
0000
0000
0000
0000
ENDCHAR
STARTCHAR C002F
ENCODING -1 47
SWIDTH 0 0
DWIDTH 0 0
BBX 0 40 0 -9
BITMAP
00
00
00
00
00
00
00
00
00
00
00
00
00
00
00
00
00
00
00
00
00
00
00
00
00
00
00
00
00
00
00
00
00
00
00
00
00
00
00
00
ENDCHAR
STARTCHAR C0030
ENCODING -1 48
SWIDTH 0 0
DWIDTH 0 0
BBX 0 40 0 -9
BITMAP
00
00
00
00
00
00
00
00
00
00
00
00
00
00
00
00
00
00
00
00
00
00
00
00
00
00
00
00
00
00
00
00
00
00
00
00
00
00
00
00
ENDCHAR
STARTCHAR C0031
ENCODING -1 49
SWIDTH 0 0
DWIDTH 0 0
BBX 0 40 0 -9
BITMAP
00
00
00
00
00
00
00
00
00
00
00
00
00
00
00
00
00
00
00
00
00
00
00
00
00
00
00
00
00
00
00
00
00
00
00
00
00
00
00
00
ENDCHAR
STARTCHAR C0032
ENCODING -1 50
SWIDTH 0 0
DWIDTH 0 0
BBX 0 40 0 -9
BITMAP
00
00
00
00
00
00
00
00
00
00
00
00
00
00
00
00
00
00
00
00
00
00
00
00
00
00
00
00
00
00
00
00
00
00
00
00
00
00
00
00
ENDCHAR
STARTCHAR C0033
ENCODING -1 51
SWIDTH 0 0
DWIDTH 0 0
BBX 0 40 0 -9
BITMAP
00
00
00
00
00
00
00
00
00
00
00
00
00
00
00
00
00
00
00
00
00
00
00
00
00
00
00
00
00
00
00
00
00
00
00
00
00
00
00
00
ENDCHAR
STARTCHAR C0034
ENCODING -1 52
SWIDTH 0 0
DWIDTH 0 0
BBX 0 40 0 -9
BITMAP
00
00
00
00
00
00
00
00
00
00
00
00
00
00
00
00
00
00
00
00
00
00
00
00
00
00
00
00
00
00
00
00
00
00
00
00
00
00
00
00
ENDCHAR
STARTCHAR C0035
ENCODING -1 53
SWIDTH 0 0
DWIDTH 0 0
BBX 0 40 0 -9
BITMAP
00
00
00
00
00
00
00
00
00
00
00
00
00
00
00
00
00
00
00
00
00
00
00
00
00
00
00
00
00
00
00
00
00
00
00
00
00
00
00
00
ENDCHAR
STARTCHAR C0036
ENCODING -1 54
SWIDTH 0 0
DWIDTH 0 0
BBX 0 40 0 -9
BITMAP
00
00
00
00
00
00
00
00
00
00
00
00
00
00
00
00
00
00
00
00
00
00
00
00
00
00
00
00
00
00
00
00
00
00
00
00
00
00
00
00
ENDCHAR
STARTCHAR C0037
ENCODING -1 55
SWIDTH 0 0
DWIDTH 0 0
BBX 0 40 0 -9
BITMAP
00
00
00
00
00
00
00
00
00
00
00
00
00
00
00
00
00
00
00
00
00
00
00
00
00
00
00
00
00
00
00
00
00
00
00
00
00
00
00
00
ENDCHAR
STARTCHAR C0038
ENCODING -1 56
SWIDTH 0 0
DWIDTH 0 0
BBX 0 40 0 -9
BITMAP
00
00
00
00
00
00
00
00
00
00
00
00
00
00
00
00
00
00
00
00
00
00
00
00
00
00
00
00
00
00
00
00
00
00
00
00
00
00
00
00
ENDCHAR
STARTCHAR C0039
ENCODING -1 57
SWIDTH 0 0
DWIDTH 0 0
BBX 0 40 0 -9
BITMAP
00
00
00
00
00
00
00
00
00
00
00
00
00
00
00
00
00
00
00
00
00
00
00
00
00
00
00
00
00
00
00
00
00
00
00
00
00
00
00
00
ENDCHAR
STARTCHAR C003A
ENCODING -1 58
SWIDTH 250 0
DWIDTH 10 0
BBX 16 40 0 -9
BITMAP
0000
0000
0000
0000
0000
0000
0000
0000
0000
0000
0000
0000
0000
0000
0038
0010
00FE
007C
0038
007C
0000
0010
0000
0000
0038
0010
00FE
007C
0038
007C
0000
0010
0000
0000
0000
0000
0000
0000
0000
0000
ENDCHAR
STARTCHAR C003B
ENCODING -1 59
SWIDTH 250 0
DWIDTH 10 0
BBX 16 40 0 -9
BITMAP
0000
0000
0000
0000
0000
0000
0000
0000
0000
0000
0000
0000
0000
0000
0038
0010
00FE
007C
0038
007C
0000
0010
0000
0000
0038
0010
00FE
007C
007C
007C
001C
0038
0003
000E
0000
0000
0000
0000
0000
0000
ENDCHAR
STARTCHAR C003C
ENCODING -1 60
SWIDTH 0 0
DWIDTH 0 0
BBX 0 40 0 -9
BITMAP
00
00
00
00
00
00
00
00
00
00
00
00
00
00
00
00
00
00
00
00
00
00
00
00
00
00
00
00
00
00
00
00
00
00
00
00
00
00
00
00
ENDCHAR
STARTCHAR C003D
ENCODING -1 61
SWIDTH 0 0
DWIDTH 0 0
BBX 0 40 0 -9
BITMAP
00
00
00
00
00
00
00
00
00
00
00
00
00
00
00
00
00
00
00
00
00
00
00
00
00
00
00
00
00
00
00
00
00
00
00
00
00
00
00
00
ENDCHAR
STARTCHAR C003E
ENCODING -1 62
SWIDTH 0 0
DWIDTH 0 0
BBX 0 40 0 -9
BITMAP
00
00
00
00
00
00
00
00
00
00
00
00
00
00
00
00
00
00
00
00
00
00
00
00
00
00
00
00
00
00
00
00
00
00
00
00
00
00
00
00
ENDCHAR
STARTCHAR C003F
ENCODING -1 63
SWIDTH 275 0
DWIDTH 11 0
BBX 16 40 0 -9
BITMAP
0000
0000
0000
0000
0000
0000
0000
0000
0038
0000
01FF
00FE
0383
01C3
0380
0382
03E0
03C0
007C
01F8
008E
001E
01FC
018C
0000
00F8
0078
0030
0078
00FC
0000
0030
0000
0000
0000
0000
0000
0000
0000
0000
ENDCHAR
STARTCHAR C0040
ENCODING -1 64
SWIDTH 625 0
DWIDTH 25 0
BBX 32 40 0 -9
BITMAP
E3800000
E3800000
41000000
E3800000
00000000
00000000
FFC00001
7E000000
FFE00007
FFE00003
C018001F
FFF0000F
001E0038
001C001C
003E0030
003E0030
007C0060
007E0070
00F90060
00FC0060
00E30020
00F30060
003C0020
00F60020
01F80010
00000010
FFFE0007
0FFC000C
FF830001
FFE60003
00000000
FE020000
00000000
00000000
00000000
00000000
00000000
00000000
00000000
00000000
ENDCHAR
STARTCHAR C0041
ENCODING -1 65
SWIDTH 575 0
DWIDTH 23 0
BBX 32 40 0 -9
BITMAP
00000000
00000000
00000000
00000000
00000000
00000000
00F8000E
00000000
B3C60007
99FC000F
E7870001
E7C70003
E78F0001
E7870001
E78F0001
E78F0001
E79C0001
E79E0001
E7980001
E79C0001
E38E0001
E39C0001
E0C00001
E1C00001
F07C0001
F0700001
EFFC0007
F8FE0001
C1C00001
E3F00003
00000000
80000000
00000000
00000000
00000000
00000000
00000000
00000000
00000000
00000000
ENDCHAR
STARTCHAR C0042
ENCODING -1 66
SWIDTH 600 0
DWIDTH 24 0
BBX 32 40 0 -9
BITMAP
00000000
00000000
00000000
00000000
00000000
00000000
F3FC0003
E0F00001
9F8E000F
FFCE0007
8F0F000F
8F8F000F
0F1F000F
8F1F000F
DF3E001F
1F3F001E
FF3C0007
FF3C0007
8F9C000F
CF38000F
0386001F
079E001F
00FC001E
01C0001E
01FE000C
00FC001C
07F30006
03FE000C
FF800001
1FC00003
00000000
3C000000
00000000
00000000
00000000
00000000
00000000
00000000
00000000
00000000
ENDCHAR
STARTCHAR C0043
ENCODING -1 67
SWIDTH 525 0
DWIDTH 21 0
BBX 32 40 0 -9
BITMAP
00000000
00000000
00000000
00000000
00000000
00000000
11E00002
00000000
FE380003
7FF00003
FE1E0000
FC3C0001
071F0000
061E0000
0F0F0000
070F0000
1F0F0000
1F0F0000
3E0F0000
3E0F0000
780F0000
7C0F0000
781E0000
780F0000
381E0000
781E0000
00380001
1E3C0006
7FE00000
80F00000
00000000
1E000000
00000000
00000000
00000000
00000000
00000000
00000000
00000000
00000000
ENDCHAR
STARTCHAR C0044
ENCODING -1 68
SWIDTH 600 0
DWIDTH 24 0
BBX 32 40 0 -9
BITMAP
00000000
00000000
00000000
00000000
00000000
00000000
1FE00000
00000000
FFF80000
3FF80000
FFFE0003
FFFC0001
E6070007
FE060003
0383000E
8303000F
0F86001C
0783001C
0F000010
0F8C0018
0E000010
1E000010
06000010
0E000010
03F80008
03F00018
7FC40007
07FC000C
FE000001
FF860003
00000000
18000000
00000000
00000000
00000000
00000000
00000000
00000000
00000000
00000000
ENDCHAR
STARTCHAR C0045
ENCODING -1 69
SWIDTH 575 0
DWIDTH 23 0
BBX 32 40 0 -9
BITMAP
00000000
00000000
00000000
00000000
00000000
00000000
77E00004
23C00000
F8380003
F8780007
CC1E0000
FC3C0001
0E1E0000
061E0000
1E1F0007
0E1F0000
FE1F000F
9E1F000F
7C1F0006
7E1F000E
701F0000
781F0004
701E0000
701E0000
3C3C0004
701C0000
00700003
0C780006
3F800000
F9E00000
00000000
00000000
00000000
00000000
00000000
00000000
00000000
00000000
00000000
00000000
ENDCHAR
STARTCHAR C0046
ENCODING -1 70
SWIDTH 550 0
DWIDTH 22 0
BBX 32 40 0 -9
BITMAP
00000000
00000000
00000000
00000000
03FC0000
00F80000
1FFF0003
0FFE0003
FF830001
FFE70003
7C030000
FE030000
0C0E0000
0C020000
8E000003
0E380000
FE1C0007
CE000007
1E390002
1E3E0007
7C3C0000
3E780000
F83E0000
7C3C0000
F01E0000
F81E0000
F00E0000
F00E0000
38180000
701C0000
07800000
1FF00000
00000000
00000000
00000000
00000000
00000000
00000000
00000000
00000000
ENDCHAR
STARTCHAR C0047
ENCODING -1 71
SWIDTH 600 0
DWIDTH 24 0
BBX 32 40 0 -9
BITMAP
00000000
00000000
00000000
00000000
00000000
00000000
1FC00018
00000000
3C78000E
1FF0001C
0E3C000F
4E38000F
0F1E000F
0E1E001F
1F1F0007
0F1F000F
FE0F000F
1F1F0007
7C0F003E
7E0F001F
780F003E
7C0F003E
781E003E
780F003E
1E1C001E
391E001E
00380007
0038000E
FFC00000
80600003
00000000
1C000000
00000000
00000000
00000000
00000000
00000000
00000000
00000000
00000000
ENDCHAR
STARTCHAR C0048
ENCODING -1 72
SWIDTH 600 0
DWIDTH 24 0
BBX 32 40 0 -9
BITMAP
00000000
00000000
00000000
00000000
00000000
00000000
04000000
00000000
9F000001
0E000001
FFC00000
FF800001
E0E00001
7CE00000
F8F0000F
F0F00007
FFF0001F
FCF0000F
03F0001E
83F0001F
03E0001C
03F0003E
07CF001C
03E4001C
038F000C
079F001C
018E0004
038F000C
FE000001
FCFC0003
46000000
FE000000
C6000000
02000000
00000000
FC000000
00000000
00000000
00000000
00000000
ENDCHAR
STARTCHAR C0049
ENCODING -1 73
SWIDTH 525 0
DWIDTH 21 0
BBX 32 40 0 -9
BITMAP
00000000
00000000
00000000
00000000
01F00000
00000000
87FE0001
83FC0001
1FC70001
0FFE0001
FF030001
FF830001
78030000
FE030000
F8060001
F0030000
3C7C0006
3C7E0002
7C000000
3C000004
F8000000
FC000000
F0000001
F8000001
E03E0003
E00C0003
80790003
C03F0003
80F10001
80F90001
7FC00000
C1E10000
00000000
1F800000
00000000
00000000
00000000
00000000
00000000
00000000
ENDCHAR
STARTCHAR C004A
ENCODING -1 74
SWIDTH 550 0
DWIDTH 22 0
BBX 32 40 0 -9
BITMAP
00000000
00000000
00000000
00000000
01F00000
00000000
07FE0001
83FC0001
1FC70003
0FFE0003
FE030001
FF870003
70030000
FC030000
78060003
F0030001
38780004
387C0002
7C000000
7C000004
F8000001
F8000000
E0000003
F0000003
C07E0003
E01C0003
80F30003
807F0003
81E30001
80F30003
7FC00000
C3E00000
00000000
1F000000
00000000
00000000
00000000
00000000
00000000
00000000
ENDCHAR
STARTCHAR C004B
ENCODING -1 75
SWIDTH 550 0
DWIDTH 22 0
BBX 32 40 0 -9
BITMAP
00000000
00000000
00000000
00000000
00000000
00000000
60E00000
3F800000
1C380001
80700000
79BC0004
3F3C0002
F0FE0004
F8FE0004
F07E0004
F07E0004
E07E0005
E07E0005
7FFC0000
FEFC0000
78F80000
7CF80000
71E00000
71F00000
71CF0000
71C70000
F0C70001
70C70000
603C0000
F0660000
00000000
00000000
00000000
00000000
00000000
00000000
00000000
00000000
00000000
00000000
ENDCHAR
STARTCHAR C004C
ENCODING -1 76
SWIDTH 450 0
DWIDTH 18 0
BBX 16 40 0 -9
BITMAP
0000
0000
0000
0000
0000
0000
0FF8
03F0
3C0E
1C1C
3C0F
3C0F
3E1F
3C0F
1E3F
3E1F
1E7E
1E3E
3C78
1E7C
0070
3070
003C
0030
60FF
407E
3FF3
7FFF
0780
1FE1
0000
0000
0000
0000
0000
0000
0000
0000
0000
0000
ENDCHAR
STARTCHAR C004D
ENCODING -1 77
SWIDTH 775 0
DWIDTH 31 0
BBX 32 40 0 -9
BITMAP
00000000
00000000
00000000
00000000
00000000
00000000
F3FC03F1
E0F001E0
8F86078F
DFCE07DF
8F8F078F
8F87078F
8F9F078F
8F8F078F
8F3E0E0F
8F3F070F
8F7C078F
8F3E0F0F
8F7003CF
8F7803CF
871001E7
8F3001E7
870001E3
870C01E7
BBF803E1
831001E3
FCFC0FC0
FDFC0FE1
22620180
7EFE03C0
00000000
00000000
00000000
00000000
00000000
00000000
00000000
00000000
00000000
00000000
ENDCHAR
STARTCHAR C004E
ENCODING -1 78
SWIDTH 650 0
DWIDTH 26 0
BBX 32 40 0 -9
BITMAP
00000000
00000000
00000000
00000000
C1F80007
00000000
3F8E001E
E3FC000F
3F0F001E
3F0E001E
1F0F003E
1F0F003E
1F3F003C
1F1F003E
1F7E0078
1F3E0038
1E78000F
1F7C003C
9F30000F
1F70000F
8F1C0007
9F300007
87000007
8F0C0007
87F8004F
87300007
81FC003F
83FC007F
00C20006
00F6001F
00000000
00000000
00000000
00000000
00000000
00000000
00000000
00000000
00000000
00000000
ENDCHAR
STARTCHAR C004F
ENCODING -1 79
SWIDTH 625 0
DWIDTH 25 0
BBX 32 40 0 -9
BITMAP
00000000
00000000
00000000
00000000
7E000000
00000000
FFE00003
FFC00001
FFF0000F
FFE00007
001C001C
C018001F
003E0030
001E0038
007E0070
003E0030
00FC0060
007C0060
00F30060
00F90060
00F60020
00E30020
00000010
003C0020
0FFC000C
01F80010
FFE60003
FFFE0007
FE020000
FF830001
00000000
00000000
00000000
00000000
00000000
00000000
00000000
00000000
00000000
00000000
ENDCHAR
STARTCHAR C0050
ENCODING -1 80
SWIDTH 625 0
DWIDTH 25 0
BBX 32 40 0 -9
BITMAP
00000000
00000000
00000000
00000000
C0F00003
00000000
FFFE000F
E1FC0007
1F8F001F
1F8E000F
1F1F001E
1F0F001F
1F3F007E
1F1F001E
DF3E0003
9F3E003F
DF78000F
DF7C0007
9F38001F
DF38001F
1F0E003E
1F1C003F
1F800030
1F000038
3FF00030
1FE00030
FFF8001F
FFF8003F
FF0C0003
FF1C0007
0E000000
0E000000
0E000000
0E000000
00000000
04000000
00000000
00000000
00000000
00000000
ENDCHAR
STARTCHAR C0051
ENCODING -1 81
SWIDTH 750 0
DWIDTH 30 0
BBX 32 40 0 -9
BITMAP
00000000
00000000
00000000
00000000
FE000000
00000000
FFF00007
FFE00001
FFF8001F
FFF0000F
001C0038
0018003F
003E0060
001C0070
007E00C0
003E00E0
00F800C0
007C00C0
00E100C0
00F900C0
00620040
00E100C0
00000860
007C0040
07FC0FF8
01F00C60
FFE607CF
FFFE07DF
FC020100
FF0303C3
00000000
00000000
00000000
00000000
00000000
00000000
00000000
00000000
00000000
00000000
ENDCHAR
STARTCHAR C0052
ENCODING -1 82
SWIDTH 625 0
DWIDTH 25 0
BBX 32 40 0 -9
BITMAP
00000000
00000000
00000000
00000000
E0F80003
00000000
1B86000F
F3FC0007
1F87001E
1F87001F
0F0F001E
0F8F001E
0F1F001C
0F1F001E
0F3E007E
0F3F003C
FF3C0007
FF3E001F
8F0C0007
8F1C0007
8F800007
8F870007
8F840007
8F800007
878F0007
878E0007
838E001F
838F003F
00780006
81FC000F
00000000
00000000
00000000
00000000
00000000
00000000
00000000
00000000
00000000
00000000
ENDCHAR
STARTCHAR C0053
ENCODING -1 83
SWIDTH 625 0
DWIDTH 25 0
BBX 32 40 0 -9
BITMAP
00000000
00000000
00000000
00000000
00000000
00000000
7FE00010
1F800010
FFF8001F
FFF00019
F80C000F
FFFC001F
00060000
E0060007
80630003
03C30000
FC33000F
E0230007
FFE3003F
FFF3001F
1FC30020
7FE30030
000E0020
02070020
007C001E
001E0030
FFF8000F
FFFC001F
FFC00001
FFF00007
00000000
3E000000
00000000
00000000
00000000
00000000
00000000
00000000
00000000
00000000
ENDCHAR
STARTCHAR C0054
ENCODING -1 84
SWIDTH 575 0
DWIDTH 23 0
BBX 32 40 0 -9
BITMAP
00000000
00000000
00000000
00000000
03E00000
00000000
3FFC0008
0FF80008
FFFE000F
7FFE000C
FE030007
FF060007
C7030001
FE030003
07820000
07830000
0F9C0000
0F860000
1F000000
1F800000
0E000000
1E000000
03FC0000
06300000
0FFE0006
03FC000C
FFC30001
FFE20003
3C000000
FF030000
00000000
00000000
00000000
00000000
00000000
00000000
00000000
00000000
00000000
00000000
ENDCHAR
STARTCHAR C0055
ENCODING -1 85
SWIDTH 550 0
DWIDTH 22 0
BBX 32 40 0 -9
BITMAP
00000000
00000000
00000000
00000000
20180000
00000000
F83E0000
703C0000
FC7F0001
FC7F0003
F0780000
F87C0000
F0780000
F0780000
F0780000
F0780000
F0780000
F0780000
F0780000
F0780000
F0780000
F0780000
F0780000
F0780000
FC7C0004
F8780000
E1FC0003
F3FE0007
40600000
E0F00000
00000000
00000000
00000000
00000000
00000000
00000000
00000000
00000000
00000000
00000000
ENDCHAR
STARTCHAR C0056
ENCODING -1 86
SWIDTH 625 0
DWIDTH 25 0
BBX 32 40 0 -9
BITMAP
00000000
00000000
00000000
00000000
E0F00003
00000000
9F86000F
F3FC0007
0F87000F
9F86000F
0F0F000F
0F8F000F
0F1F003E
0F1F000E
8F3E0003
0F3F003F
CF9C0003
CF3C0003
C78E000F
C79C0007
00C0001F
8382000F
00FE001E
007C001F
03FF000C
01FF001C
0FE10006
07F3000E
FE000001
FF810003
00000000
00000000
00000000
00000000
00000000
00000000
00000000
00000000
00000000
00000000
ENDCHAR
STARTCHAR C0057
ENCODING -1 87
SWIDTH 800 0
DWIDTH 32 0
BBX 32 40 0 -9
BITMAP
00000000
00000000
00000000
00000000
00000000
00000000
FBFE03FC
70F801F0
8F8707C7
FFC707CF
8F870781
8F8707C1
CF9F0701
8F8F0781
EF9F1F01
CF9F1F01
CFBC03C7
EF9E0383
879807CF
C79C07C7
01821F87
038E0F8F
007C1E02
00801F07
01FE0C07
007E1C03
FFF1043F
83FF0C0F
1F8001FE
FFE103FF
00000000
0700007C
00000000
00000000
00000000
00000000
00000000
00000000
00000000
00000000
ENDCHAR
STARTCHAR C0058
ENCODING -1 88
SWIDTH 475 0
DWIDTH 19 0
BBX 32 40 0 -9
BITMAP
00000000
00000000
00000000
00000000
20380000
00000000
F9FC0001
F0780000
EFFE0001
FFFC0001
C7E30000
EFFE0000
07C00000
07C00000
47C00000
07C00000
7FFC0000
67F00000
1FFE0000
7FFC0000
03C60000
07CE0000
07C00000
07C00000
C7C70000
87C00000
7F3F0000
FFEF0000
3E1E0000
3F3F0000
00000000
08000000
00000000
00000000
00000000
00000000
00000000
00000000
00000000
00000000
ENDCHAR
STARTCHAR C0059
ENCODING -1 89
SWIDTH 575 0
DWIDTH 23 0
BBX 32 40 0 -9
BITMAP
00000000
00000000
00000000
00000000
00000000
00000000
F3FC0001
E1F80000
9F8E0003
DFCE0003
9F8F0007
9F8F0007
9F1F000F
9F0F000F
9F3E000F
9F1F000F
8F7C000F
8F7E000F
8F38000F
8F78000F
8398000F
8730000F
80C0000F
8184000F
80F80007
80E00007
83F80007
81FC0007
C3980001
8FC00003
E03C0000
C1380001
18700000
60380000
00000000
0FE00000
00000000
00000000
00000000
00000000
ENDCHAR
STARTCHAR C005A
ENCODING -1 90
SWIDTH 550 0
DWIDTH 22 0
BBX 32 40 0 -9
BITMAP
00000000
00000000
00000000
00000000
FFE00000
1F800000
E00C0001
F0300000
E0000003
E0040003
E0700003
E0200003
E0780001
E0780003
7CE00000
F0700000
7FE00000
3FE00000
FFF80003
FFF00001
C00C0007
F0180003
80000007
C0000007
803E0007
801F0007
C07C0003
803C0003
70F00000
C0780001
00000000
3FC00000
00000000
00000000
00000000
00000000
00000000
00000000
00000000
00000000
ENDCHAR
STARTCHAR C005B
ENCODING -1 91
SWIDTH 0 0
DWIDTH 0 0
BBX 0 40 0 -9
BITMAP
00
00
00
00
00
00
00
00
00
00
00
00
00
00
00
00
00
00
00
00
00
00
00
00
00
00
00
00
00
00
00
00
00
00
00
00
00
00
00
00
ENDCHAR
STARTCHAR C005C
ENCODING -1 92
SWIDTH 0 0
DWIDTH 0 0
BBX 0 40 0 -9
BITMAP
00
00
00
00
00
00
00
00
00
00
00
00
00
00
00
00
00
00
00
00
00
00
00
00
00
00
00
00
00
00
00
00
00
00
00
00
00
00
00
00
ENDCHAR
STARTCHAR C005D
ENCODING -1 93
SWIDTH 0 0
DWIDTH 0 0
BBX 0 40 0 -9
BITMAP
00
00
00
00
00
00
00
00
00
00
00
00
00
00
00
00
00
00
00
00
00
00
00
00
00
00
00
00
00
00
00
00
00
00
00
00
00
00
00
00
ENDCHAR
STARTCHAR C005E
ENCODING -1 94
SWIDTH 0 0
DWIDTH 0 0
BBX 0 40 0 -9
BITMAP
00
00
00
00
00
00
00
00
00
00
00
00
00
00
00
00
00
00
00
00
00
00
00
00
00
00
00
00
00
00
00
00
00
00
00
00
00
00
00
00
ENDCHAR
STARTCHAR C005F
ENCODING -1 95
SWIDTH 0 0
DWIDTH 0 0
BBX 0 40 0 -9
BITMAP
00
00
00
00
00
00
00
00
00
00
00
00
00
00
00
00
00
00
00
00
00
00
00
00
00
00
00
00
00
00
00
00
00
00
00
00
00
00
00
00
ENDCHAR
STARTCHAR C0060
ENCODING -1 96
SWIDTH 350 0
DWIDTH 14 0
BBX 16 40 0 -9
BITMAP
0000
0000
0000
0000
0000
0000
0000
0000
0000
0000
0000
0000
0000
0000
0000
0000
0000
0000
0000
0000
0000
0000
0000
0000
0000
0000
0C18
0000
1E3C
1E3C
070E
0F1E
0183
0387
0000
0081
0000
0000
0000
0000
ENDCHAR
STARTCHAR C0061
ENCODING -1 97
SWIDTH 350 0
DWIDTH 14 0
BBX 16 40 0 -9
BITMAP
0000
0000
0000
0000
0000
0000
0000
0000
0000
0000
0000
0000
0000
0000
03F0
0060
0FFC
0FF8
078F
078E
078F
078F
078F
078F
078F
078F
1FFE
078E
061C
0F7E
0000
0000
0000
0000
0000
0000
0000
0000
0000
0000
ENDCHAR
STARTCHAR C0062
ENCODING -1 98
SWIDTH 375 0
DWIDTH 15 0
BBX 16 40 0 -9
BITMAP
0000
0000
0000
0000
0000
0000
0000
0000
00E1
01C0
003B
0033
003E
003E
0E3E
043E
0FFC
0FBC
1F3C
1F3C
1E3C
1E3C
1E3C
1E3C
1E3C
1E3C
0F7E
1E3C
03FC
07FE
0000
00E0
0000
0000
0000
0000
0000
0000
0000
0000
ENDCHAR
STARTCHAR C0063
ENCODING -1 99
SWIDTH 225 0
DWIDTH 9 0
BBX 16 40 0 -9
BITMAP
0000
0000
0000
0000
0000
0000
0000
0000
0000
0000
0000
0000
0000
0000
00F8
00E0
01FE
01FE
004F
00CF
000F
000F
000F
000F
000F
000F
01FE
019F
003C
00FE
0000
0010
0000
0000
0000
0000
0000
0000
0000
0000
ENDCHAR
STARTCHAR C0064
ENCODING -1 100
SWIDTH 325 0
DWIDTH 13 0
BBX 16 40 0 -9
BITMAP
0000
0000
0000
0000
0000
0000
0000
0000
0007
000E
0007
0003
003F
000F
01FE
00FF
07F0
03F8
0F9E
079C
0F1E
0F1E
0F1E
0F1E
0F1E
0F1E
03FF
071E
007C
01FF
0000
0030
0000
0000
0000
0000
0000
0000
0000
0000
ENDCHAR
STARTCHAR C0065
ENCODING -1 101
SWIDTH 300 0
DWIDTH 12 0
BBX 16 40 0 -9
BITMAP
0000
0000
0000
0000
0000
0000
0000
0000
0000
0000
0000
0000
00E0
0000
01FC
01F0
03EF
01FE
01CF
07CF
007F
00FF
001F
001F
021F
001F
01FE
03FE
0070
0078
0000
0000
0000
0000
0000
0000
0000
0000
0000
0000
ENDCHAR
STARTCHAR C0066
ENCODING -1 102
SWIDTH 275 0
DWIDTH 11 0
BBX 16 40 0 -9
BITMAP
0000
0000
0000
0000
0000
0000
03FC
0238
00CE
01FE
001C
000C
003E
001C
01FF
01FF
003C
003C
003C
003C
003C
003C
003C
003C
001C
003C
0018
001C
0018
0018
0018
0018
0000
0018
0000
0000
0000
0000
0000
0000
ENDCHAR
STARTCHAR C0067
ENCODING -1 103
SWIDTH 350 0
DWIDTH 14 0
BBX 16 40 0 -9
BITMAP
0000
0000
0000
0000
0000
0000
0000
0000
0000
0000
0000
0000
0000
0000
03F0
00E0
0FFC
0FF8
078F
0FDE
078F
078F
078F
078F
078F
078F
07FE
078F
0F0C
077E
0E00
0F00
071E
0F0E
0000
01FC
0000
0000
0000
0000
ENDCHAR
STARTCHAR C0068
ENCODING -1 104
SWIDTH 350 0
DWIDTH 14 0
BBX 16 40 0 -9
BITMAP
0000
0000
0000
0000
0000
0000
00C0
0000
0071
00E0
003F
003B
001E
001E
079E
071E
0FBE
0FFE
0F1E
0F1E
0F1E
0F1E
0F1E
0F1E
0F1E
0F1E
0F7F
0F1E
0718
073E
0300
0700
0180
0380
0000
0080
0000
0000
0000
0000
ENDCHAR
STARTCHAR C0069
ENCODING -1 105
SWIDTH 225 0
DWIDTH 9 0
BBX 16 40 0 -9
BITMAP
0000
0000
0000
0000
0000
0000
001C
0000
003E
001E
001C
001E
0000
0000
003E
000C
007F
007F
003C
003E
003C
003C
003C
003C
003C
003C
00FC
003C
0038
007C
0000
0010
0000
0000
0000
0000
0000
0000
0000
0000
ENDCHAR
STARTCHAR C006A
ENCODING -1 106
SWIDTH 250 0
DWIDTH 10 0
BBX 16 40 0 -9
BITMAP
0000
0000
0000
0000
003C
001C
003C
003E
0000
0018
0018
0000
007E
003C
003C
00FF
003C
003C
003C
003C
003C
003C
003C
003C
003C
003C
007C
003C
00CE
007C
0003
0187
0000
0001
0000
0000
0000
0000
0000
0000
ENDCHAR
STARTCHAR C006B
ENCODING -1 107
SWIDTH 275 0
DWIDTH 11 0
BBX 16 40 0 -9
BITMAP
0000
0000
0000
0000
0000
0000
01C0
0000
0073
00F0
03FC
033E
0278
03F8
03FF
003C
003C
03FF
0038
0038
0038
0038
0038
0038
0038
0038
033E
003C
00F8
01FC
0000
0060
0000
0000
0000
0000
0000
0000
0000
0000
ENDCHAR
STARTCHAR C006C
ENCODING -1 108
SWIDTH 275 0
DWIDTH 11 0
BBX 16 40 0 -9
BITMAP
0000
0000
0000
0000
0000
0000
0180
0000
0073
00E0
003E
007F
003C
003E
003C
003C
003C
003C
003C
003C
003C
003C
003C
003C
003C
003C
01FE
003C
0078
00FE
0000
0030
0000
0000
0000
0000
0000
0000
0000
0000
ENDCHAR
STARTCHAR C006D
ENCODING -1 109
SWIDTH 575 0
DWIDTH 23 0
BBX 32 40 0 -9
BITMAP
00000000
00000000
00000000
00000000
00000000
00000000
00000000
00000000
00000000
00000000
00000000
00000000
06080007
00000000
CF9E001F
8F1C000F
3E7F000F
FFFF001F
1E3C000F
1E3C000F
1E3C000F
1E3C000F
1E3C000F
1E3C000F
1E3C000F
1E3C000F
3F7E001F
1E3C003F
08180004
1C3C000E
00000000
00000000
00000000
00000000
00000000
00000000
00000000
00000000
00000000
00000000
ENDCHAR
STARTCHAR C006E
ENCODING -1 110
SWIDTH 375 0
DWIDTH 15 0
BBX 16 40 0 -9
BITMAP
0000
0000
0000
0000
0000
0000
0000
0000
0000
0000
0000
0000
0000
0000
0F1C
0608
3FFF
1FBE
1E3C
3F3F
1E3C
1E3C
1E3C
1E3C
1E3C
1E3C
3E7C
1E3C
1C3C
3E7E
0000
0810
0000
0000
0000
0000
0000
0000
0000
0000
ENDCHAR
STARTCHAR C006F
ENCODING -1 111
SWIDTH 350 0
DWIDTH 14 0
BBX 16 40 0 -9
BITMAP
0000
0000
0000
0000
0000
0000
0000
0000
0000
0000
0000
0000
0000
0000
07E0
0700
0FBE
07FE
1F1E
0F1E
1F1E
1F1E
1E1E
1E1E
0E1E
1E1E
07FE
0E3E
00F8
01FF
0000
0040
0000
0000
0000
0000
0000
0000
0000
0000
ENDCHAR
STARTCHAR C0070
ENCODING -1 112
SWIDTH 350 0
DWIDTH 14 0
BBX 16 40 0 -9
BITMAP
0000
0000
0000
0000
0000
0000
0000
0000
0000
0000
0002
0000
0007
0006
0F9F
070F
0F3E
0FFF
1E3C
1E3C
1E3C
1E3C
1E3C
1E3C
0F3E
0F3C
07FF
0FFF
01FC
01FD
001C
003C
001C
001C
0000
0018
0000
0000
0000
0000
ENDCHAR
STARTCHAR C0071
ENCODING -1 113
SWIDTH 325 0
DWIDTH 13 0
BBX 16 40 0 -9
BITMAP
0000
0000
0000
0000
0000
0000
0000
0000
0000
0000
0000
0000
0060
0000
07FC
01F0
03EF
07FE
03CF
03CF
03CF
03CF
03CF
03CF
03CF
03CF
03FE
03FF
078C
039E
0380
0380
0100
0380
0000
0000
0000
0000
0000
0000
ENDCHAR
STARTCHAR C0072
ENCODING -1 114
SWIDTH 300 0
DWIDTH 12 0
BBX 16 40 0 -9
BITMAP
0000
0000
0000
0000
0000
0000
0000
0000
0000
0000
0000
0000
0000
0000
038C
0000
07FF
03DE
0738
077F
0038
0238
0038
0038
0038
0038
013C
0038
00FC
01FE
0000
0030
0000
0000
0000
0000
0000
0000
0000
0000
ENDCHAR
STARTCHAR C0073
ENCODING -1 115
SWIDTH 275 0
DWIDTH 11 0
BBX 16 40 0 -9
BITMAP
0000
0000
0000
0000
0000
0000
0270
0000
03FC
03FC
00C6
01FE
001C
000C
003F
001C
007E
003F
0078
0078
0078
0078
0038
0038
0038
0038
0038
0038
0038
0038
0018
0018
0010
0010
0010
0010
0000
0000
0000
0000
ENDCHAR
STARTCHAR C0074
ENCODING -1 116
SWIDTH 275 0
DWIDTH 11 0
BBX 16 40 0 -9
BITMAP
0000
0000
0000
0000
0000
0000
0000
0000
0030
0030
0038
0030
0038
0038
03FF
003C
003C
03FF
0038
0038
0038
0038
0038
0038
003C
0038
033E
003E
00F0
01F8
0000
0060
0000
0000
0000
0000
0000
0000
0000
0000
ENDCHAR
STARTCHAR C0075
ENCODING -1 117
SWIDTH 375 0
DWIDTH 15 0
BBX 16 40 0 -9
BITMAP
0000
0000
0000
0000
0000
0000
0000
0000
0000
0000
0000
0000
0000
0000
0E0E
0404
1F9F
1F1F
071C
0F1F
071C
071C
071C
071C
071C
071C
1FFF
071C
0E1C
1E7E
0000
0408
0000
0000
0000
0000
0000
0000
0000
0000
ENDCHAR
STARTCHAR C0076
ENCODING -1 118
SWIDTH 350 0
DWIDTH 14 0
BBX 16 40 0 -9
BITMAP
0000
0000
0000
0000
0000
0000
0000
0000
0000
0000
0002
0000
0007
0003
0F8F
0707
0FFE
0FDF
0F1E
0F1E
0F1E
0F1E
0F1E
0F1E
0F1E
0F1E
07FF
073E
0070
00FC
0000
0000
0000
0000
0000
0000
0000
0000
0000
0000
ENDCHAR
STARTCHAR C0077
ENCODING -1 119
SWIDTH 525 0
DWIDTH 21 0
BBX 32 40 0 -9
BITMAP
00000000
00000000
00000000
00000000
00000000
00000000
00000000
00000000
00000000
00000000
00030000
00000000
00070000
00070000
C78F0003
870F0003
FFFE0007
EFDF0003
8F1E0007
8F1E0007
8F1E0007
8F1E0007
8F1E0007
8F1E0007
CF1E0003
CF1E0003
FF1F0001
DF1E0003
38040000
7E0E0000
00000000
00000000
00000000
00000000
00000000
00000000
00000000
00000000
00000000
00000000
ENDCHAR
STARTCHAR C0078
ENCODING -1 120
SWIDTH 350 0
DWIDTH 14 0
BBX 16 40 0 -9
BITMAP
0000
0000
0000
0000
0000
0000
0000
0000
0000
0000
0000
0000
0000
0000
0F3C
0618
1FFF
0FFE
067C
0E7C
007C
007C
0078
0078
0078
0078
07FE
007C
0187
03FF
0E07
0007
070C
0F06
0000
03F8
0000
0000
0000
0000
ENDCHAR
STARTCHAR C0079
ENCODING -1 121
SWIDTH 350 0
DWIDTH 14 0
BBX 16 40 0 -9
BITMAP
0000
0000
0000
0000
0000
0000
0000
0000
0000
0000
0002
0000
0007
0007
07CF
0307
07BE
07FF
0F0E
0F1E
0F0E
0F0E
0F0E
0F0E
0F0E
0F0E
076F
074E
033C
077E
0300
0300
0180
0180
00C0
0180
0030
0060
000C
0018
ENDCHAR
STARTCHAR C007A
ENCODING -1 122
SWIDTH 300 0
DWIDTH 12 0
BBX 16 40 0 -9
BITMAP
0000
0000
0000
0000
0000
0000
0000
0000
0000
0000
0000
0000
0030
0000
00FC
0078
00F2
00FE
0070
0070
033E
0038
01F2
01FF
03CC
01F8
03C6
03C6
0383
0383
03C7
0383
00FC
01C6
0000
0070
0000
0000
0000
0000
ENDCHAR
STARTCHAR C007B
ENCODING -1 123
SWIDTH 0 0
DWIDTH 0 0
BBX 0 40 0 -9
BITMAP
00
00
00
00
00
00
00
00
00
00
00
00
00
00
00
00
00
00
00
00
00
00
00
00
00
00
00
00
00
00
00
00
00
00
00
00
00
00
00
00
ENDCHAR
STARTCHAR C007C
ENCODING -1 124
SWIDTH 0 0
DWIDTH 0 0
BBX 0 40 0 -9
BITMAP
00
00
00
00
00
00
00
00
00
00
00
00
00
00
00
00
00
00
00
00
00
00
00
00
00
00
00
00
00
00
00
00
00
00
00
00
00
00
00
00
ENDCHAR
STARTCHAR C007D
ENCODING -1 125
SWIDTH 0 0
DWIDTH 0 0
BBX 0 40 0 -9
BITMAP
00
00
00
00
00
00
00
00
00
00
00
00
00
00
00
00
00
00
00
00
00
00
00
00
00
00
00
00
00
00
00
00
00
00
00
00
00
00
00
00
ENDCHAR
STARTCHAR C007E
ENCODING -1 126
SWIDTH 0 0
DWIDTH 0 0
BBX 0 40 0 -9
BITMAP
00
00
00
00
00
00
00
00
00
00
00
00
00
00
00
00
00
00
00
00
00
00
00
00
00
00
00
00
00
00
00
00
00
00
00
00
00
00
00
00
ENDCHAR
STARTCHAR C007F
ENCODING -1 127
SWIDTH 0 0
DWIDTH 0 0
BBX 0 40 0 -9
BITMAP
00
00
00
00
00
00
00
00
00
00
00
00
00
00
00
00
00
00
00
00
00
00
00
00
00
00
00
00
00
00
00
00
00
00
00
00
00
00
00
00
ENDCHAR
ENDFONT
